<svg xmlns="http://www.w3.org/2000/svg" version="1.1" xmlns:xlink="http://www.w3.org/1999/xlink" xmlns:svgjs="http://svgjs.com/svgjs" width="100%" height="100%" viewBox="0 0 1000 600"><rect width="1000" height="600" x="0" y="0" fill="#08090a"/><g><circle r="166.66666666666666" cx="222.22222391764322" cy="244.4444359673398" fill="#f02849" transform="matrix(2.2499999313354513,0,0,2.2499999313354517,0,-249.99999847412175)"/><path d="M216.64254964935475 319.4444440752002L216.64254964935475 319.4444440752002Q205.76482157235964 319.4444440752002 194.3590484430832 316.7338128068227Q182.9884783172922 314.02318153844533 175.56064458186836 309.7988211201948L175.56064458186836 309.7988211201948L174.3285394598786 277.86969695891787L184.95984651247576 276.884012861326L191.89483819910373 298.9210930431997Q197.84414578813988 302.8638294335668 205.13116750962206 304.97600964269213Q212.45339223458964 307.08818985181733 220.37406801880937 307.08818985181733L220.37406801880937 307.08818985181733Q232.48390121779423 307.08818985181733 239.91173495321806 301.1388822627812Q247.33956868864192 295.189574673745 247.33956868864192 285.0511096699438L247.33956868864192 285.0511096699438Q247.33956868864192 276.39117081253016 242.1295241727996 270.58267523743575Q236.9546826604427 264.7389766588558 228.64677383788333 260.409007230149Q220.37406801880937 256.07903780144227 211.0804750986582 251.99548939713335Q201.78688217850706 247.91194099282453 193.61978536988937 242.59628746652592Q185.45268856127166 237.28063394022737 180.13703503497308 229.4655671664639Q174.8213815086745 221.68570339618586 174.8213815086745 210.03350924251149L174.8213815086745 210.03350924251149Q174.8213815086745 198.17009706792456 181.61556118136076 188.87650414777343Q188.40974085404704 179.61811423110765 200.30835603211938 174.5136787257216Q212.17176820670628 169.444446223821 227.52027772634986 169.444446223821L227.52027772634986 169.444446223821Q233.9624273641819 169.444446223821 240.01734396367434 170.0781002865586Q246.1074635666522 170.6765513458107 251.28230507900906 172.0494684817421Q256.4923495948514 173.42238561767357 260.71671001310193 175.1473327884592L260.71671001310193 175.1473327884592L262.6880782082855 206.09077285214428L252.05677115568835 207.07645694973607L245.12177946906039 186.27148188985225Q237.20110368484063 181.3430614018933 224.80964645797243 181.3430614018933L224.80964645797243 181.3430614018933Q212.17176820670628 181.3430614018933 204.63832546082614 187.5387900153274Q197.10488271494603 193.6993156252761 197.10488271494603 203.6265626081648L197.10488271494603 203.6265626081648Q197.10488271494603 212.53292248997636 202.42053624124463 218.58783908946876Q207.7361897675432 224.64275568896122 216.00889558661717 229.11353713160966Q224.31680440917654 233.54911557077273 233.6103973293277 237.6326639750816Q242.86878724599345 241.71621237939044 251.17669606855281 246.92625689523274Q259.4494018876268 252.1363014110751 264.80025841741076 259.6697441569552Q270.11591194370936 267.23838990632066 270.11591194370936 278.36253900771374L270.11591194370936 278.36253900771374Q270.11591194370936 290.26115418578615 263.1809202570814 299.51954410245185Q256.24592857045343 308.813137022603 244.24170438192488 314.12879054890163Q232.23748019339627 319.4444440752002 216.64254964935475 319.4444440752002Z " fill="#08090a" transform="matrix(2.2499999313354513,0,0,2.2499999313354517,0,-249.99999847412175)"/><path d="MNaN 244.44444783528658 " fill="black" transform="matrix(2.2499999313354513,0,0,2.2499999313354517,0,-249.99999847412175)"/></g></svg>